<?xml version="1.0" encoding="UTF-8"?>
<!-- Generated by Pixelmator Pro 3.6.10 -->
<svg width="200" height="200" viewBox="0 0 200 200" xmlns="http://www.w3.org/2000/svg">
    <path id="path1" fill="none" stroke="none" d="M 0 0 L 200 0 L 200 200 L 0 200 Z"/>
    <path id="path2" fill="#ffffff" stroke="none" d="M 97.916672 24.916672 C 99.205841 24.172363 100.794159 24.172363 102.083336 24.916672 L 163.983337 60.650009 C 165.272476 61.394287 166.066635 62.76976 166.066666 64.258331 L 166.066666 135.741669 C 166.066635 137.23024 165.272476 138.605713 163.983337 139.350006 L 102.083336 175.083344 C 100.794159 175.827637 99.205841 175.827637 97.916672 175.083344 L 36.016666 139.350006 C 34.727528 138.605713 33.933372 137.23024 33.933334 135.741669 L 33.933334 64.25 C 33.933372 62.761429 34.727528 61.385956 36.016666 60.641663 Z M 100 42.958328 L 50.591667 71.475006 L 50.591667 128.516663 L 100 157.03334 L 149.399994 128.516663 L 149.399994 71.475006 L 100 42.958328 Z M 100 83.333328 C 109.204742 83.333328 116.666664 90.795258 116.666664 100 C 116.666664 109.204742 109.204742 116.666664 100 116.666664 C 90.795258 116.666664 83.333328 109.204742 83.333328 100 C 83.333328 90.795258 90.795258 83.333328 100 83.333328 Z"/>
</svg>
